<svg width="1600" height="900" viewBox="0 0 1600 900" fill="none" xmlns="http://www.w3.org/2000/svg">
  <defs>
    <linearGradient id="bg" x1="90" y1="80" x2="1490" y2="820" gradientUnits="userSpaceOnUse">
      <stop stop-color="#F8F1E4"/>
      <stop offset="0.45" stop-color="#EFE2CE"/>
      <stop offset="1" stop-color="#D9C1A4"/>
    </linearGradient>
    <linearGradient id="panelA" x1="230" y1="210" x2="590" y2="710" gradientUnits="userSpaceOnUse">
      <stop stop-color="#FFF8EF"/>
      <stop offset="1" stop-color="#EEDBC3"/>
    </linearGradient>
    <linearGradient id="panelB" x1="635" y1="170" x2="1010" y2="760" gradientUnits="userSpaceOnUse">
      <stop stop-color="#FAF2E8"/>
      <stop offset="1" stop-color="#E8D5BD"/>
    </linearGradient>
    <linearGradient id="panelC" x1="1045" y1="205" x2="1380" y2="720" gradientUnits="userSpaceOnUse">
      <stop stop-color="#FFF7EE"/>
      <stop offset="1" stop-color="#E9D5BE"/>
    </linearGradient>
    <linearGradient id="glowWarm" x1="0" y1="0" x2="1" y2="1">
      <stop stop-color="#FFDFA1"/>
      <stop offset="1" stop-color="#FFB85E"/>
    </linearGradient>
    <linearGradient id="accent" x1="0" y1="0" x2="1" y2="1">
      <stop stop-color="#7C8D63"/>
      <stop offset="1" stop-color="#B86E42"/>
    </linearGradient>
    <filter id="blur" x="-120" y="-120" width="1840" height="1140" filterUnits="userSpaceOnUse" color-interpolation-filters="sRGB">
      <feGaussianBlur stdDeviation="42"/>
    </filter>
    <filter id="shadow" x="160" y="120" width="1280" height="640" filterUnits="userSpaceOnUse" color-interpolation-filters="sRGB">
      <feOffset dy="18"/>
      <feGaussianBlur stdDeviation="24"/>
      <feColorMatrix type="matrix" values="0 0 0 0 0.35 0 0 0 0 0.22 0 0 0 0 0.08 0 0 0 0.18 0"/>
    </filter>
  </defs>

  <rect width="1600" height="900" rx="36" fill="url(#bg)"/>
  <g filter="url(#blur)" opacity="0.45">
    <circle cx="238" cy="171" r="122" fill="#FFF9F1"/>
    <circle cx="1269" cy="176" r="166" fill="#E1D1B8"/>
    <circle cx="1112" cy="705" r="178" fill="#F4C27B"/>
  </g>

  <path d="M0 698C172 640 314 640 506 698C664 746 806 746 959 698C1142 640 1316 646 1600 758V900H0V698Z" fill="#D0B08B" opacity="0.32"/>
  <path d="M0 761C220 698 432 708 634 773C799 826 952 824 1110 773C1301 712 1460 708 1600 742V900H0V761Z" fill="#B7865F" opacity="0.18"/>

  <g filter="url(#shadow)">
    <rect x="193" y="148" width="1214" height="540" rx="34" fill="#EAD9C2"/>
  </g>

  <rect x="222" y="180" width="360" height="486" rx="28" fill="url(#panelA)"/>
  <rect x="621" y="180" width="360" height="486" rx="28" fill="url(#panelB)"/>
  <rect x="1020" y="180" width="360" height="486" rx="28" fill="url(#panelC)"/>

  <rect x="285" y="276" width="232" height="264" rx="20" fill="#C59569"/>
  <rect x="300" y="292" width="202" height="124" rx="12" fill="#F7F1E7"/>
  <rect x="300" y="432" width="202" height="93" rx="12" fill="#E4C6A0"/>
  <rect x="300" y="432" width="202" height="16" rx="8" fill="url(#glowWarm)" opacity="0.82"/>
  <rect x="320" y="470" width="58" height="38" rx="8" fill="#FCF8F0"/>
  <rect x="388" y="470" width="94" height="38" rx="8" fill="#F2E5D1"/>
  <rect x="347" y="248" width="108" height="18" rx="9" fill="#D3A56A"/>
  <path d="M380 220V250" stroke="#3B342E" stroke-width="10" stroke-linecap="round"/>
  <path d="M344 218C344 198 360 182 380 182C400 182 416 198 416 218" stroke="#3B342E" stroke-width="10" stroke-linecap="round"/>
  <circle cx="380" cy="268" r="22" fill="url(#glowWarm)"/>
  <circle cx="380" cy="268" r="42" fill="#FFD89A" opacity="0.26"/>

  <rect x="683" y="248" width="238" height="300" rx="24" fill="#F7EDE0"/>
  <rect x="708" y="283" width="188" height="170" rx="16" fill="#DDB184"/>
  <rect x="708" y="453" width="188" height="20" rx="10" fill="url(#glowWarm)"/>
  <rect x="727" y="495" width="149" height="18" rx="9" fill="#C19B77"/>
  <rect x="744" y="528" width="114" height="12" rx="6" fill="#DCC8B2"/>
  <rect x="744" y="550" width="92" height="12" rx="6" fill="#DCC8B2"/>
  <rect x="740" y="220" width="124" height="14" rx="7" fill="#4A4137" opacity="0.9"/>
  <path d="M804 188V220" stroke="#4A4137" stroke-width="8" stroke-linecap="round"/>
  <path d="M729 188H879" stroke="#4A4137" stroke-width="8" stroke-linecap="round"/>
  <circle cx="804" cy="233" r="18" fill="#FFF1D3"/>
  <circle cx="804" cy="233" r="34" fill="#FFD79A" opacity="0.24"/>

  <rect x="1083" y="264" width="232" height="284" rx="24" fill="#F3E7D7"/>
  <rect x="1110" y="390" width="178" height="126" rx="20" fill="#C49571"/>
  <rect x="1134" y="345" width="52" height="84" rx="18" fill="#FFF8EF"/>
  <rect x="1211" y="345" width="52" height="84" rx="18" fill="#FFF8EF"/>
  <rect x="1164" y="421" width="72" height="16" rx="8" fill="#EFDABF"/>
  <path d="M1158 242V335" stroke="#5B4E43" stroke-width="8" stroke-linecap="round"/>
  <path d="M1238 242V335" stroke="#5B4E43" stroke-width="8" stroke-linecap="round"/>
  <path d="M1124 242H1272" stroke="#5B4E43" stroke-width="8" stroke-linecap="round"/>
  <circle cx="1158" cy="358" r="16" fill="#FFE8B6"/>
  <circle cx="1238" cy="358" r="16" fill="#FFE8B6"/>
  <circle cx="1158" cy="358" r="30" fill="#FFD285" opacity="0.2"/>
  <circle cx="1238" cy="358" r="30" fill="#FFD285" opacity="0.2"/>

  <rect x="286" y="574" width="164" height="16" rx="8" fill="#7C8D63" opacity="0.7"/>
  <rect x="712" y="584" width="178" height="16" rx="8" fill="#B86E42" opacity="0.68"/>
  <rect x="1116" y="574" width="153" height="16" rx="8" fill="#7C8D63" opacity="0.7"/>
</svg>
