<svg width="1400" height="840" viewBox="0 0 1400 840" fill="none" xmlns="http://www.w3.org/2000/svg">
  <defs>
    <linearGradient id="bg" x1="124" y1="88" x2="1240" y2="744" gradientUnits="userSpaceOnUse">
      <stop stop-color="#FBF5EB"/>
      <stop offset="1" stop-color="#E6D1B9"/>
    </linearGradient>
    <linearGradient id="room" x1="208" y1="176" x2="1158" y2="660" gradientUnits="userSpaceOnUse">
      <stop stop-color="#FFF8EF"/>
      <stop offset="1" stop-color="#F0E0CB"/>
    </linearGradient>
    <linearGradient id="ambient" x1="700" y1="190" x2="700" y2="420" gradientUnits="userSpaceOnUse">
      <stop stop-color="#FFF2CF" stop-opacity="0.95"/>
      <stop offset="1" stop-color="#FFE5B6" stop-opacity="0"/>
    </linearGradient>
    <linearGradient id="task" x1="545" y1="412" x2="770" y2="520" gradientUnits="userSpaceOnUse">
      <stop stop-color="#FFD48B" stop-opacity="0.9"/>
      <stop offset="1" stop-color="#FFD48B" stop-opacity="0"/>
    </linearGradient>
    <linearGradient id="accent" x1="995" y1="264" x2="995" y2="544" gradientUnits="userSpaceOnUse">
      <stop stop-color="#FFD090" stop-opacity="0.86"/>
      <stop offset="1" stop-color="#FFD090" stop-opacity="0"/>
    </linearGradient>
  </defs>

  <rect width="1400" height="840" rx="34" fill="url(#bg)"/>
  <rect x="192" y="152" width="1016" height="544" rx="30" fill="url(#room)"/>
  <rect x="252" y="202" width="896" height="444" rx="26" fill="#F9F2E8"/>
  <rect x="252" y="584" width="896" height="62" rx="18" fill="#C99E73"/>
  <rect x="252" y="264" width="896" height="8" rx="4" fill="#4E443A" opacity="0.08"/>

  <path d="M700 182V248" stroke="#443930" stroke-width="10" stroke-linecap="round"/>
  <path d="M634 182H766" stroke="#443930" stroke-width="10" stroke-linecap="round"/>
  <circle cx="700" cy="266" r="22" fill="#FFF1D4"/>
  <circle cx="700" cy="266" r="126" fill="url(#ambient)"/>

  <rect x="324" y="462" width="384" height="58" rx="18" fill="#D9B18A"/>
  <rect x="346" y="404" width="340" height="66" rx="18" fill="#EFE3D3"/>
  <rect x="360" y="420" width="112" height="24" rx="10" fill="#FFF9F1"/>
  <rect x="484" y="420" width="188" height="24" rx="10" fill="#FFF5E8"/>
  <path d="M533 352V404" stroke="#40362E" stroke-width="8" stroke-linecap="round"/>
  <path d="M612 352V404" stroke="#40362E" stroke-width="8" stroke-linecap="round"/>
  <path d="M533 352H612" stroke="#40362E" stroke-width="8" stroke-linecap="round"/>
  <circle cx="533" cy="422" r="14" fill="#FFE7B7"/>
  <circle cx="612" cy="422" r="14" fill="#FFE7B7"/>
  <ellipse cx="558" cy="478" rx="152" ry="64" fill="url(#task)"/>

  <rect x="846" y="250" width="202" height="300" rx="18" fill="#D7B692"/>
  <rect x="862" y="266" width="170" height="268" rx="12" fill="#F5EADF"/>
  <rect x="878" y="292" width="58" height="226" rx="8" fill="#E9D3BA"/>
  <rect x="952" y="292" width="58" height="226" rx="8" fill="#E9D3BA"/>
  <rect x="1018" y="292" width="14" height="226" rx="7" fill="url(#accent)"/>
  <circle cx="1006" cy="332" r="48" fill="#FFD59A" opacity="0.22"/>

  <rect x="870" y="590" width="186" height="12" rx="6" fill="#7C8D63" opacity="0.75"/>
  <rect x="360" y="612" width="214" height="12" rx="6" fill="#B46E45" opacity="0.72"/>
</svg>
