<svg width="1400" height="840" viewBox="0 0 1400 840" fill="none" xmlns="http://www.w3.org/2000/svg">
  <defs>
    <linearGradient id="bg" x1="116" y1="88" x2="1262" y2="760" gradientUnits="userSpaceOnUse">
      <stop stop-color="#F9F1E6"/>
      <stop offset="1" stop-color="#DCC2A4"/>
    </linearGradient>
    <linearGradient id="wall" x1="220" y1="184" x2="1186" y2="676" gradientUnits="userSpaceOnUse">
      <stop stop-color="#FDF7EF"/>
      <stop offset="1" stop-color="#F0DFCA"/>
    </linearGradient>
    <linearGradient id="bed" x1="430" y1="372" x2="988" y2="620" gradientUnits="userSpaceOnUse">
      <stop stop-color="#D9B492"/>
      <stop offset="1" stop-color="#B4835C"/>
    </linearGradient>
    <linearGradient id="lampGlow" x1="0" y1="0" x2="1" y2="1">
      <stop stop-color="#FFE8B7"/>
      <stop offset="1" stop-color="#FFBC65"/>
    </linearGradient>
  </defs>

  <rect width="1400" height="840" rx="34" fill="url(#bg)"/>
  <rect x="188" y="162" width="1024" height="532" rx="34" fill="url(#wall)"/>
  <rect x="240" y="576" width="920" height="70" rx="18" fill="#C89D74"/>
  <rect x="470" y="338" width="460" height="210" rx="36" fill="url(#bed)"/>
  <rect x="500" y="366" width="400" height="112" rx="28" fill="#F8F1E6"/>
  <rect x="500" y="494" width="400" height="24" rx="12" fill="#E9D7C1"/>
  <rect x="560" y="392" width="116" height="58" rx="18" fill="#FFF8EF"/>
  <rect x="690" y="392" width="156" height="58" rx="18" fill="#FFF5EA"/>

  <rect x="378" y="430" width="72" height="118" rx="20" fill="#D4AF88"/>
  <rect x="950" y="430" width="72" height="118" rx="20" fill="#D4AF88"/>

  <path d="M414 302V430" stroke="#4A3E34" stroke-width="8" stroke-linecap="round"/>
  <path d="M986 302V430" stroke="#4A3E34" stroke-width="8" stroke-linecap="round"/>
  <path d="M388 302C388 286 401 274 417 274H431C447 274 460 286 460 302V316H388V302Z" fill="#F6E9D7"/>
  <path d="M960 302C960 286 973 274 989 274H1003C1019 274 1032 286 1032 302V316H960V302Z" fill="#F6E9D7"/>
  <circle cx="424" cy="328" r="18" fill="#FFF0CC"/>
  <circle cx="996" cy="328" r="18" fill="#FFF0CC"/>
  <circle cx="424" cy="328" r="88" fill="#FFD89A" opacity="0.18"/>
  <circle cx="996" cy="328" r="88" fill="#FFD89A" opacity="0.18"/>

  <rect x="262" y="230" width="164" height="214" rx="22" fill="#E6D2BC"/>
  <rect x="278" y="248" width="132" height="182" rx="14" fill="#F6EEE4"/>
  <rect x="292" y="272" width="104" height="12" rx="6" fill="#CAB39A"/>
  <rect x="292" y="302" width="104" height="12" rx="6" fill="#CAB39A"/>
  <rect x="292" y="332" width="88" height="12" rx="6" fill="#CAB39A"/>

  <rect x="1038" y="226" width="102" height="174" rx="18" fill="#F0E0CE"/>
  <rect x="1062" y="252" width="16" height="92" rx="8" fill="#D2B397"/>
  <rect x="1088" y="252" width="16" height="92" rx="8" fill="#D2B397"/>
  <rect x="1114" y="252" width="16" height="92" rx="8" fill="#D2B397"/>

  <path d="M600 214C662 162 744 162 800 214" stroke="#7C8D63" stroke-width="8" stroke-linecap="round" opacity="0.8"/>
  <rect x="574" y="214" width="250" height="8" rx="4" fill="#7C8D63" opacity="0.75"/>
  <rect x="570" y="622" width="260" height="14" rx="7" fill="#B66E45" opacity="0.72"/>
</svg>
